<svg xmlns="http://www.w3.org/2000/svg" width="900" height="300" viewBox="0 0 900 300">
<rect width="900" height="300" fill="#fff"/>
<line x1="46" y1="260" x2="888" y2="260" stroke="#ddd" stroke-width="1"/><text x="6" y="264.0" font-size="11" fill="#666" font-family="monospace">0ms</text><line x1="46" y1="222.5" x2="888" y2="222.5" stroke="#ddd" stroke-width="1"/><text x="6" y="226.5" font-size="11" fill="#666" font-family="monospace">50ms</text><line x1="46" y1="185" x2="888" y2="185" stroke="#ddd" stroke-width="1"/><text x="6" y="189.0" font-size="11" fill="#666" font-family="monospace">100ms</text><line x1="46" y1="110" x2="888" y2="110" stroke="#ddd" stroke-width="1"/><text x="6" y="114.0" font-size="11" fill="#666" font-family="monospace">200ms</text><line x1="46" y1="35" x2="888" y2="35" stroke="#ddd" stroke-width="1"/><text x="6" y="39.0" font-size="11" fill="#666" font-family="monospace">300ms</text>
<line x1="46" y1="14" x2="46" y2="260" stroke="#111" stroke-width="1.5" stroke-dasharray="4 3"/>
<text x="51" y="24" font-size="11" fill="#111" font-family="monospace">drawer-open click</text>
<rect x="53.5" y="251.8" width="2.2" height="8.3" fill="#4a6fa5"/><rect x="66.6" y="249.5" width="2.2" height="10.5" fill="#4a6fa5"/><rect x="104.9" y="229.3" width="2.2" height="30.8" fill="#4a6fa5"/><rect x="111.5" y="254.8" width="2.2" height="5.3" fill="#4a6fa5"/><rect x="118.0" y="254.8" width="2.2" height="5.3" fill="#4a6fa5"/><rect x="119.0" y="259.3" width="2.2" height="0.8" fill="#4a6fa5"/><rect x="146.1" y="238.3" width="2.2" height="21.8" fill="#4a6fa5"/><rect x="147.0" y="259.3" width="2.2" height="0.8" fill="#4a6fa5"/><rect x="148.0" y="259.3" width="2.2" height="0.8" fill="#4a6fa5"/><rect x="158.3" y="251.8" width="2.2" height="8.3" fill="#4a6fa5"/><rect x="166.7" y="253.3" width="2.2" height="6.8" fill="#4a6fa5"/><rect x="177.0" y="251.8" width="2.2" height="8.3" fill="#4a6fa5"/><rect x="202.2" y="239.8" width="2.2" height="20.3" fill="#4a6fa5"/><rect x="207.9" y="255.5" width="2.2" height="4.5" fill="#4a6fa5"/><rect x="214.4" y="254.8" width="2.2" height="5.3" fill="#4a6fa5"/><rect x="224.7" y="251.8" width="2.2" height="8.3" fill="#4a6fa5"/><rect x="234.0" y="252.5" width="2.2" height="7.5" fill="#4a6fa5"/><rect x="259.3" y="239.8" width="2.2" height="20.3" fill="#4a6fa5"/><rect x="260.2" y="259.3" width="2.2" height="0.8" fill="#4a6fa5"/><rect x="264.0" y="257.0" width="2.2" height="3.0" fill="#4a6fa5"/><rect x="272.4" y="253.3" width="2.2" height="6.8" fill="#4a6fa5"/><rect x="281.8" y="252.5" width="2.2" height="7.5" fill="#4a6fa5"/><rect x="293.0" y="251.0" width="2.2" height="9.0" fill="#4a6fa5"/><rect x="317.3" y="240.5" width="2.2" height="19.5" fill="#4a6fa5"/><rect x="322.9" y="255.5" width="2.2" height="4.5" fill="#4a6fa5"/><rect x="329.5" y="254.8" width="2.2" height="5.3" fill="#4a6fa5"/><rect x="339.8" y="251.8" width="2.2" height="8.3" fill="#4a6fa5"/><rect x="351.0" y="251.0" width="2.2" height="9.0" fill="#4a6fa5"/><rect x="358.5" y="254.0" width="2.2" height="6.0" fill="#4a6fa5"/><rect x="368.8" y="251.8" width="2.2" height="8.3" fill="#4a6fa5"/><rect x="377.2" y="253.3" width="2.2" height="6.8" fill="#4a6fa5"/><rect x="387.5" y="251.8" width="2.2" height="8.3" fill="#4a6fa5"/><rect x="397.8" y="251.8" width="2.2" height="8.3" fill="#4a6fa5"/><rect x="406.2" y="253.3" width="2.2" height="6.8" fill="#4a6fa5"/><rect x="415.5" y="252.5" width="2.2" height="7.5" fill="#4a6fa5"/><rect x="426.8" y="251.0" width="2.2" height="9.0" fill="#4a6fa5"/><rect x="434.3" y="254.0" width="2.2" height="6.0" fill="#4a6fa5"/><rect x="445.5" y="251.0" width="2.2" height="9.0" fill="#4a6fa5"/><rect x="456.7" y="251.0" width="2.2" height="9.0" fill="#4a6fa5"/><rect x="463.3" y="254.8" width="2.2" height="5.3" fill="#4a6fa5"/><rect x="482.0" y="245.0" width="2.2" height="15.0" fill="#4a6fa5"/><rect x="495.1" y="249.5" width="2.2" height="10.5" fill="#4a6fa5"/><rect x="501.6" y="254.8" width="2.2" height="5.3" fill="#4a6fa5"/><rect x="511.9" y="251.8" width="2.2" height="8.3" fill="#4a6fa5"/><rect x="520.3" y="253.3" width="2.2" height="6.8" fill="#4a6fa5"/><rect x="529.7" y="252.5" width="2.2" height="7.5" fill="#4a6fa5"/><rect x="548.4" y="245.0" width="2.2" height="15.0" fill="#4a6fa5"/><rect x="566.2" y="245.8" width="2.2" height="14.3" fill="#4a6fa5"/><rect x="569.0" y="257.8" width="2.2" height="2.3" fill="#4a6fa5"/><rect x="579.3" y="251.8" width="2.2" height="8.3" fill="#4a6fa5"/><rect x="587.7" y="253.3" width="2.2" height="6.8" fill="#4a6fa5"/><rect x="597.0" y="252.5" width="2.2" height="7.5" fill="#4a6fa5"/><rect x="606.4" y="252.5" width="2.2" height="7.5" fill="#4a6fa5"/><rect x="618.6" y="250.3" width="2.2" height="9.8" fill="#4a6fa5"/><rect x="631.7" y="249.5" width="2.2" height="10.5" fill="#4a6fa5"/><rect x="635.4" y="257.0" width="2.2" height="3.0" fill="#4a6fa5"/><rect x="644.8" y="252.5" width="2.2" height="7.5" fill="#4a6fa5"/><rect x="654.1" y="252.5" width="2.2" height="7.5" fill="#4a6fa5"/><rect x="664.4" y="251.8" width="2.2" height="8.3" fill="#4a6fa5"/><rect x="672.8" y="253.3" width="2.2" height="6.8" fill="#4a6fa5"/><rect x="699.0" y="239.0" width="2.2" height="21.0" fill="#4a6fa5"/><rect x="701.8" y="257.8" width="2.2" height="2.3" fill="#4a6fa5"/><rect x="712.1" y="251.8" width="2.2" height="8.3" fill="#4a6fa5"/><rect x="720.5" y="253.3" width="2.2" height="6.8" fill="#4a6fa5"/><rect x="730.8" y="251.8" width="2.2" height="8.3" fill="#4a6fa5"/><rect x="741.1" y="251.8" width="2.2" height="8.3" fill="#4a6fa5"/><rect x="751.4" y="251.8" width="2.2" height="8.3" fill="#4a6fa5"/><rect x="758.9" y="254.0" width="2.2" height="6.0" fill="#4a6fa5"/><rect x="770.1" y="251.0" width="2.2" height="9.0" fill="#4a6fa5"/><rect x="778.5" y="253.3" width="2.2" height="6.8" fill="#4a6fa5"/><rect x="788.8" y="251.8" width="2.2" height="8.3" fill="#4a6fa5"/><rect x="797.3" y="253.3" width="2.2" height="6.8" fill="#4a6fa5"/><rect x="808.5" y="251.0" width="2.2" height="9.0" fill="#4a6fa5"/><rect x="816.9" y="253.3" width="2.2" height="6.8" fill="#4a6fa5"/><rect x="826.3" y="252.5" width="2.2" height="7.5" fill="#4a6fa5"/><rect x="836.5" y="251.8" width="2.2" height="8.3" fill="#4a6fa5"/><rect x="845.9" y="252.5" width="2.2" height="7.5" fill="#4a6fa5"/><rect x="856.2" y="251.8" width="2.2" height="8.3" fill="#4a6fa5"/><rect x="863.7" y="254.0" width="2.2" height="6.0" fill="#4a6fa5"/><rect x="875.8" y="250.3" width="2.2" height="9.8" fill="#4a6fa5"/><rect x="883.3" y="254.0" width="2.2" height="6.0" fill="#4a6fa5"/><circle cx="62.8" cy="274" r="3" fill="#888" opacity="0.85"/><circle cx="63.8" cy="274" r="3" fill="#888" opacity="0.85"/><circle cx="63.8" cy="274" r="3" fill="#888" opacity="0.85"/><circle cx="63.8" cy="274" r="3" fill="#888" opacity="0.85"/><circle cx="70.3" cy="274" r="3" fill="#2e8b57" opacity="0.85"/><circle cx="92.8" cy="274" r="3" fill="#2e8b57" opacity="0.85"/><circle cx="99.3" cy="274" r="3" fill="#8e44ad" opacity="0.85"/><circle cx="99.3" cy="274" r="3" fill="#8e44ad" opacity="0.85"/><circle cx="99.3" cy="274" r="3" fill="#8e44ad" opacity="0.85"/><circle cx="99.3" cy="274" r="3" fill="#8e44ad" opacity="0.85"/><text x="46.0" y="294" font-size="11" fill="#666" text-anchor="middle" font-family="monospace">+0</text><text x="233.1" y="294" font-size="11" fill="#666" text-anchor="middle" font-family="monospace">+200</text><text x="420.2" y="294" font-size="11" fill="#666" text-anchor="middle" font-family="monospace">+400</text><text x="607.3" y="294" font-size="11" fill="#666" text-anchor="middle" font-family="monospace">+600</text><text x="794.4" y="294" font-size="11" fill="#666" text-anchor="middle" font-family="monospace">+800</text>
<text x="46" y="256" font-size="0" fill="none"></text>
<text x="6" y="14" font-size="13" font-weight="bold" fill="#111" font-family="monospace">APPORTION — wordmark bake only (grid pinned)</text>
<text x="888" y="14" font-size="11" fill="#444" text-anchor="end" font-family="monospace">worst 41ms · blocked600 0ms · bakes 4 · rep #2 of 3</text>
</svg>